#N canvas -891 -998 932 933 10;
#X obj 81 202 noise~;
#X obj 236 204 noise~;
#X obj 381 204 noise~;
#X obj 80 299 bp~, f 19;
#X obj 235 298 bp~, f 19;
#X obj 382 301 bp~, f 19;
#X obj 78 351 bp~, f 19;
#X obj 233 350 bp~, f 19;
#X obj 380 353 bp~, f 19;
#X obj 247 467 *~ 0.2;
#X obj 247 558 dac~;
#X floatatom 132 252 5 0 0 0 - - -, f 5;
#X floatatom 175 252 5 0 0 0 - - -, f 5;
#X floatatom 282 255 5 0 0 0 - - -, f 5;
#X floatatom 325 255 5 0 0 0 - - -, f 5;
#X floatatom 432 251 5 0 0 0 - - -, f 5;
#X floatatom 475 251 5 0 0 0 - - -, f 5;
#X obj 283 45 r centerFrequency_01 @hv_param 20 20000 130;
#X obj 322 72 r Q @hv_param 0.1 2 1.2;
#X connect 0 0 3 0;
#X connect 1 0 4 0;
#X connect 2 0 5 0;
#X connect 3 0 6 0;
#X connect 4 0 7 0;
#X connect 5 0 8 0;
#X connect 6 0 9 0;
#X connect 7 0 9 0;
#X connect 8 0 9 0;
#X connect 9 0 10 0;
#X connect 9 0 10 1;
#X connect 11 0 3 1;
#X connect 11 0 6 1;
#X connect 12 0 3 2;
#X connect 12 0 6 2;
#X connect 13 0 4 1;
#X connect 13 0 7 1;
#X connect 14 0 4 2;
#X connect 14 0 7 2;
#X connect 15 0 5 1;
#X connect 15 0 8 1;
#X connect 16 0 5 2;
#X connect 16 0 8 2;
#X connect 17 0 11 0;
#X connect 17 0 13 0;
#X connect 17 0 15 0;
#X connect 18 0 12 0;
#X connect 18 0 14 0;
#X connect 18 0 16 0;
