#N canvas -8 -8 1920 1117 10;
#X obj 81 202 noise~;
#X obj 236 204 noise~;
#X obj 381 204 noise~;
#X obj 80 299 bp~, f 19;
#X obj 235 298 bp~, f 19;
#X obj 382 301 bp~, f 19;
#X obj 78 351 bp~, f 19;
#X obj 233 350 bp~, f 19;
#X obj 380 353 bp~, f 19;
#X obj 247 467 *~ 0.2;
#X obj 247 558 dac~;
#X floatatom 132 252 5 0 0 0 - - -;
#X floatatom 175 252 5 0 0 0 - - -;
#X floatatom 282 255 5 0 0 0 - - -;
#X floatatom 325 255 5 0 0 0 - - -;
#X floatatom 432 251 5 0 0 0 - - -;
#X floatatom 475 251 5 0 0 0 - - -;
#X obj 283 45 r centerFrequency_01 @hv_param 20 20000 130;
#X obj 322 72 r Q @hv_param 0.1 2 1.2;
#X obj 620 78 loadbang;
#X msg 132 165 130;
#X msg 628 119 300;
#X msg 180 163 1.2;
#X msg 432 182 130;
#X msg 475 186 1.2;
#X msg 292 178 130;
#X msg 335 182 1.2;
#X obj 652 173 hsl 128 15 20 1000 0 0 empty empty empty -2 -8 0 10
-262144 -1 -1 5500 1;
#X obj 650 217 hsl 128 15 0.1 2 0 0 empty empty empty -2 -8 0 10 -262144
-1 -1 12500 1;
#X text 800 217 Q;
#X text 796 173 Center Freq;
#X connect 0 0 3 0;
#X connect 1 0 4 0;
#X connect 2 0 5 0;
#X connect 3 0 6 0;
#X connect 4 0 7 0;
#X connect 5 0 8 0;
#X connect 6 0 9 0;
#X connect 7 0 9 0;
#X connect 8 0 9 0;
#X connect 9 0 10 0;
#X connect 9 0 10 1;
#X connect 11 0 3 1;
#X connect 11 0 6 1;
#X connect 12 0 3 2;
#X connect 12 0 6 2;
#X connect 13 0 4 1;
#X connect 13 0 7 1;
#X connect 14 0 4 2;
#X connect 14 0 7 2;
#X connect 15 0 5 1;
#X connect 15 0 8 1;
#X connect 16 0 5 2;
#X connect 16 0 8 2;
#X connect 17 0 11 0;
#X connect 17 0 13 0;
#X connect 17 0 15 0;
#X connect 18 0 12 0;
#X connect 18 0 14 0;
#X connect 18 0 16 0;
#X connect 19 0 20 0;
#X connect 19 0 22 0;
#X connect 19 0 23 0;
#X connect 19 0 24 0;
#X connect 19 0 26 0;
#X connect 19 0 25 0;
#X connect 20 0 11 0;
#X connect 23 0 15 0;
#X connect 24 0 16 0;
#X connect 25 0 13 0;
#X connect 26 0 14 0;
#X connect 27 0 13 0;
#X connect 27 0 15 0;
#X connect 27 0 11 0;
#X connect 28 0 16 0;
#X connect 28 0 14 0;
#X connect 28 0 12 0;
